<svg xmlns="http://www.w3.org/2000/svg" width="1021.1427" height="1021.1447" viewBox="0 0 1021.1427 1021.1447"><defs><style>.cls-1{fill:#f7c523;}.cls-2{fill:#fff;}.cls-3{fill:#e5a31f;}.cls-4{fill:#c68718;}.cls-5{fill:#ffd039;}.cls-6{fill:#fcbf27;}.cls-7{fill:#ffe98f;}</style></defs><g id="Layer_2" data-name="Layer 2"><g id="objects"><circle class="cls-1" cx="510.5723" cy="510.5704" r="510.5704"/><circle class="cls-1" cx="510.5723" cy="510.5704" r="510.5704"/><path class="cls-2" d="M293.6208,132.6323a15.0021,15.0021,0,0,1-7.2764-28.1275A464.2076,464.2076,0,0,1,510.572,46.7915a15,15,0,0,1,0,30A434.1338,434.1338,0,0,0,300.87,130.7539,14.9308,14.9308,0,0,1,293.6208,132.6323Z"/><path class="cls-2" d="M239.152,168.1508a15.001,15.001,0,0,1-9.0918-26.94c3.61-2.7456,7.3155-5.479,11.0147-8.1245a15,15,0,0,1,17.4512,24.4023c-3.461,2.4746-6.9268,5.0318-10.3037,7.6A14.9351,14.9351,0,0,1,239.152,168.1508Z"/><path class="cls-3" d="M510.57.0048C228.59.0048,0,228.5947,0,510.5747s228.59,510.57,510.57,510.57,510.57-228.59,510.57-510.57S792.55.0048,510.57.0048Zm0,993.69c-266.82,0-483.12-216.3-483.12-483.12,0-266.83,216.3-483.13,483.12-483.13s483.13,216.3,483.13,483.13C993.7,777.3947,777.39,993.6947,510.57,993.6947Z"/><circle class="cls-3" cx="510.5723" cy="510.5704" r="408.8247"/><path class="cls-4" d="M919.4,510.5747c0,225.78-183.04,408.82-408.83,408.82-125.53,0-237.84-56.57-312.83-145.61a407.1636,407.1636,0,0,0,263.21,95.99c225.79,0,408.83-183.04,408.83-408.83a407.1844,407.1844,0,0,0-95.99-263.21C862.83,272.7348,919.4,385.0548,919.4,510.5747Z"/><path class="cls-5" d="M547.7485,233.1588l69.7653,141.36,156,22.6682c34.004,4.941,47.5816,46.7287,22.9761,70.7132L683.6072,577.9335l26.648,155.37c5.8086,33.8666-29.7381,59.6928-60.1522,43.7032L510.5723,703.6507,371.0417,777.0063c-30.4141,15.99-65.9609-9.8366-60.1523-43.7032l26.648-155.37L224.6548,467.9c-24.6056-23.9845-11.0279-65.7722,22.9761-70.7132l156-22.6682,69.7653-141.36C488.6032,202.3459,532.5414,202.3459,547.7485,233.1588Z"/><path class="cls-6" d="M796.49,467.9047l-112.88,110.03,26.65,155.37c5.8,33.86-29.74,59.69-60.16,43.7l-139.53-73.35-139.53,73.35c-30.41,15.99-65.96-9.84-60.15-43.7l14.79-86.22s347.81,34.64,291.83-272.57l156,22.67C807.52,402.1248,821.1,443.9147,796.49,467.9047Z"/><path class="cls-7" d="M336.7213,422.3141s107.7865-6.1592,140.1225-112.4059C476.8438,309.9082,499.9409,494.6851,336.7213,422.3141Z"/></g></g></svg>